<svg width="48" height="48" viewBox="0 0 48 48" fill="none" xmlns="http://www.w3.org/2000/svg">
<path d="M44.1152 13.8898C43.8761 13.0019 43.4081 12.1923 42.7579 11.5421C42.1077 10.8918 41.2981 10.4238 40.4102 10.1848C37.1402 9.2998 24.0002 9.2998 24.0002 9.2998C24.0002 9.2998 10.8602 9.2998 7.59015 10.1848C6.70221 10.4238 5.89262 10.8918 5.2424 11.5421C4.59219 12.1923 4.12416 13.0019 3.88515 13.8898C3.27457 17.2247 2.97827 20.6095 3.00015 23.9998C2.97827 27.3901 3.27457 30.7749 3.88515 34.1098C4.12416 34.9977 4.59219 35.8073 5.2424 36.4576C5.89262 37.1078 6.70221 37.5758 7.59015 37.8148C10.8602 38.6998 24.0002 38.6998 24.0002 38.6998C24.0002 38.6998 37.1402 38.6998 40.4102 37.8148C41.2981 37.5758 42.1077 37.1078 42.7579 36.4576C43.4081 35.8073 43.8761 34.9977 44.1152 34.1098C44.7257 30.7749 45.022 27.3901 45.0002 23.9998C45.022 20.6095 44.7257 17.2247 44.1152 13.8898ZM19.8002 30.2998V17.6998L30.7052 23.9998L19.8002 30.2998Z" fill="#FF0000"/>
</svg>
