<svg width="71" height="70" viewBox="0 0 71 70" fill="none" xmlns="http://www.w3.org/2000/svg">
<path d="M9.5 35H35.75V39.375H9.5V35ZM5.125 24.0625H27V28.4375H5.125V24.0625Z" fill="#E70072"/>
<path d="M66.1979 36.3256L59.6354 21.0131C59.467 20.6195 59.1867 20.2841 58.8293 20.0484C58.4719 19.8128 58.0532 19.6873 57.6251 19.6875H51.0626V15.3125C51.0626 14.7323 50.8321 14.1759 50.4219 13.7657C50.0116 13.3555 49.4552 13.125 48.8751 13.125H13.8751V17.5H46.6876V44.9662C45.6908 45.545 44.8185 46.3155 44.1209 47.233C43.4233 48.1506 42.9143 49.1972 42.6232 50.3125H28.8769C28.3445 48.2504 27.0783 46.4533 25.3157 45.2581C23.553 44.0628 21.415 43.5514 19.3022 43.8197C17.1895 44.0881 15.2472 45.1178 13.8394 46.7157C12.4315 48.3137 11.6548 50.3703 11.6548 52.5C11.6548 54.6297 12.4315 56.6863 13.8394 58.2843C15.2472 59.8822 17.1895 60.9119 19.3022 61.1803C21.415 61.4486 23.553 60.9372 25.3157 59.7419C27.0783 58.5467 28.3445 56.7496 28.8769 54.6875H42.6232C43.099 56.5649 44.1873 58.23 45.7158 59.4194C47.2443 60.6089 49.1258 61.2547 51.0626 61.2547C52.9993 61.2547 54.8808 60.6089 56.4093 59.4194C57.9378 58.23 59.0261 56.5649 59.5019 54.6875H64.1876C64.7677 54.6875 65.3241 54.457 65.7344 54.0468C66.1446 53.6366 66.3751 53.0802 66.3751 52.5V37.1875C66.3752 36.8912 66.3149 36.5979 66.1979 36.3256ZM20.4376 56.875C19.5723 56.875 18.7264 56.6184 18.0069 56.1377C17.2875 55.6569 16.7267 54.9737 16.3956 54.1742C16.0645 53.3748 15.9778 52.4951 16.1466 51.6465C16.3154 50.7978 16.7321 50.0183 17.344 49.4064C17.9558 48.7946 18.7354 48.3779 19.584 48.2091C20.4327 48.0403 21.3124 48.1269 22.1118 48.458C22.9112 48.7892 23.5945 49.3499 24.0752 50.0694C24.556 50.7888 24.8126 51.6347 24.8126 52.5C24.8114 53.66 24.3501 54.7721 23.5299 55.5923C22.7097 56.4125 21.5975 56.8738 20.4376 56.875ZM51.0626 24.0625H56.1813L60.8713 35H51.0626V24.0625ZM51.0626 56.875C50.1973 56.875 49.3514 56.6184 48.6319 56.1377C47.9125 55.6569 47.3517 54.9737 47.0206 54.1742C46.6895 53.3748 46.6028 52.4951 46.7716 51.6465C46.9404 50.7978 47.3571 50.0183 47.969 49.4064C48.5808 48.7946 49.3604 48.3779 50.209 48.2091C51.0577 48.0403 51.9374 48.1269 52.7368 48.458C53.5362 48.7892 54.2195 49.3499 54.7002 50.0694C55.181 50.7888 55.4376 51.6347 55.4376 52.5C55.4364 53.66 54.9751 54.7721 54.1549 55.5923C53.3347 56.4125 52.2225 56.8738 51.0626 56.875ZM62.0001 50.3125H59.5019C59.0201 48.4388 57.9301 46.7779 56.4028 45.5903C54.8755 44.4026 52.9973 43.7554 51.0626 43.75V39.375H62.0001V50.3125Z" fill="#E70072"/>
</svg>
