<svg width="70" height="50" viewBox="0 0 70 50" fill="none" xmlns="http://www.w3.org/2000/svg">
<g clip-path="url(#clip0_202_48)">
<path d="M22.6345 25.3255C22.6345 26.1285 22.3763 26.7958 21.8598 27.3275C21.3433 27.8592 20.7104 28.125 19.9609 28.125C19.3736 28.125 18.9026 27.9514 18.5482 27.6042C18.1937 27.2569 18.0165 26.7795 18.0165 26.1719C18.0165 25.3689 18.2697 24.6908 18.776 24.1374C19.2824 23.584 19.9103 23.3073 20.6597 23.3073C21.2269 23.3073 21.6978 23.4863 22.0725 23.8444C22.4472 24.2025 22.6345 24.6962 22.6345 25.3255ZM46.4844 20.4753C46.4844 21.3867 46.2616 22.0052 45.816 22.3307C45.3704 22.6562 44.702 22.819 43.8108 22.819L42.8385 22.8516L43.355 19.3685C43.3955 19.1298 43.5272 19.0104 43.75 19.0104H44.2969C44.7425 19.0104 45.0969 19.0321 45.3602 19.0755C45.6236 19.1189 45.8767 19.2546 46.1198 19.4824C46.3628 19.7103 46.4844 20.0412 46.4844 20.4753ZM57.1484 25.3255C57.1484 26.1068 56.8902 26.7687 56.3737 27.3112C55.8572 27.8537 55.2344 28.125 54.5052 28.125C53.9178 28.125 53.4418 27.9514 53.0773 27.6042C52.7127 27.2569 52.5304 26.7795 52.5304 26.1719C52.5304 25.3689 52.7836 24.6908 53.2899 24.1374C53.7963 23.584 54.4242 23.3073 55.1736 23.3073C55.7407 23.3073 56.2117 23.4863 56.5864 23.8444C56.9611 24.2025 57.1484 24.6962 57.1484 25.3255ZM15.5859 19.7591C15.5859 18.4787 15.196 17.551 14.4162 16.9759C13.6364 16.4008 12.6186 16.1133 11.3628 16.1133H6.50174C6.1169 16.1133 5.90422 16.3194 5.86372 16.7318L3.88889 30.013C3.86863 30.1432 3.89902 30.2626 3.98003 30.3711C4.06105 30.4796 4.16233 30.5339 4.28385 30.5339H6.59288C6.99797 30.5339 7.22078 30.3277 7.26128 29.9154L7.80816 26.3346C7.82841 26.161 7.89931 26.02 8.02083 25.9115C8.14236 25.803 8.29427 25.7324 8.47656 25.6999C8.65885 25.6673 8.83102 25.651 8.99306 25.651C9.15509 25.651 9.34751 25.6619 9.57031 25.6836C9.79311 25.7053 9.9349 25.7161 9.99566 25.7161C11.7376 25.7161 13.1047 25.1899 14.0972 24.1374C15.0897 23.0849 15.5859 21.6254 15.5859 19.7591ZM24.974 29.9154L26.2196 21.4193C26.2399 21.2891 26.2095 21.1697 26.1285 21.0612C26.0475 20.9527 25.9462 20.8984 25.8247 20.8984H23.5156C23.2321 20.8984 23.0599 21.2565 22.9991 21.9727C22.4523 21.1046 21.4902 20.6706 20.1128 20.6706C18.6545 20.6706 17.4139 21.2565 16.3911 22.4284C15.3682 23.6003 14.8568 24.9783 14.8568 26.5625C14.8568 27.8429 15.2062 28.8628 15.9049 29.6224C16.6037 30.3819 17.5405 30.7617 18.7153 30.7617C19.2824 30.7617 19.8698 30.6315 20.4774 30.3711C21.0851 30.1107 21.5712 29.7635 21.9358 29.3294C21.8547 29.5898 21.8142 29.8177 21.8142 30.013C21.8142 30.3602 21.9459 30.5339 22.2092 30.5339H24.3056C24.6904 30.5339 24.9132 30.3277 24.974 29.9154ZM38.5547 21.3542C38.5547 21.2457 38.5142 21.1426 38.4332 21.0449C38.3521 20.9473 38.261 20.8984 38.1597 20.8984H35.8203C35.5975 20.8984 35.4152 21.0069 35.2734 21.224L32.053 26.3021L30.7161 21.4193C30.6149 21.072 30.3921 20.8984 30.0477 20.8984H27.7691C27.6678 20.8984 27.5767 20.9473 27.4957 21.0449C27.4146 21.1426 27.3741 21.2457 27.3741 21.3542C27.3741 21.3976 27.5716 22.0378 27.9666 23.2747C28.3615 24.5117 28.7869 25.8464 29.2426 27.2786C29.6984 28.7109 29.9363 29.4705 29.9566 29.5573C28.2957 31.9878 27.4653 33.2899 27.4653 33.4635C27.4653 33.7457 27.5969 33.8867 27.8602 33.8867H30.1997C30.4225 33.8867 30.6047 33.7782 30.7465 33.5612L38.4939 21.582C38.5344 21.5386 38.5547 21.4627 38.5547 21.3542ZM50.0998 19.7591C50.0998 18.4787 49.7099 17.551 48.9301 16.9759C48.1503 16.4008 47.1325 16.1133 45.8767 16.1133H41.046C40.6409 16.1133 40.4181 16.3194 40.3776 16.7318L38.4028 30.013C38.3825 30.1432 38.4129 30.2626 38.4939 30.3711C38.5749 30.4796 38.6762 30.5339 38.7977 30.5339H41.2891C41.5321 30.5339 41.6942 30.3928 41.7752 30.1107L42.322 26.3346C42.3423 26.161 42.4132 26.02 42.5347 25.9115C42.6562 25.803 42.8082 25.7324 42.9905 25.6999C43.1727 25.6673 43.3449 25.651 43.5069 25.651C43.669 25.651 43.8614 25.6619 44.0842 25.6836C44.307 25.7053 44.4488 25.7161 44.5095 25.7161C46.2514 25.7161 47.6186 25.1899 48.6111 24.1374C49.6036 23.0849 50.0998 21.6254 50.0998 19.7591ZM59.4878 29.9154L60.7335 21.4193C60.7538 21.2891 60.7234 21.1697 60.6424 21.0612C60.5613 20.9527 60.4601 20.8984 60.3385 20.8984H58.0295C57.7459 20.8984 57.5738 21.2565 57.513 21.9727C56.9864 21.1046 56.0243 20.6706 54.6267 20.6706C53.1684 20.6706 51.9278 21.2565 50.9049 22.4284C49.8821 23.6003 49.3707 24.9783 49.3707 26.5625C49.3707 27.8429 49.7201 28.8628 50.4188 29.6224C51.1176 30.3819 52.0544 30.7617 53.2292 30.7617C53.8166 30.7617 54.4141 30.6315 55.0217 30.3711C55.6293 30.1107 56.1053 29.7635 56.4497 29.3294C56.4497 29.3511 56.4294 29.4488 56.3889 29.6224C56.3484 29.796 56.3281 29.9262 56.3281 30.013C56.3281 30.3602 56.4598 30.5339 56.7231 30.5339H58.8194C59.2043 30.5339 59.4271 30.3277 59.4878 29.9154ZM66.1111 16.6016V16.569C66.1111 16.2652 65.9795 16.1133 65.7161 16.1133H63.4679C63.2451 16.1133 63.1134 16.2326 63.0729 16.4714L61.0981 30.013L61.0677 30.0781C61.0677 30.1866 61.1082 30.2897 61.1892 30.3874C61.2703 30.485 61.3715 30.5339 61.4931 30.5339H63.4983C63.8831 30.5339 64.0958 30.3277 64.1363 29.9154L66.1111 16.6016ZM11.9097 20.9635C11.8084 21.7231 11.5451 22.2222 11.1198 22.4609C10.6944 22.6997 10.0868 22.819 9.29687 22.819L8.29427 22.8516L8.81076 19.3685C8.85127 19.1298 8.98293 19.0104 9.20573 19.0104H9.78299C10.5932 19.0104 11.1806 19.1352 11.5451 19.3848C11.9097 19.6343 12.0312 20.1606 11.9097 20.9635ZM70 4.16667V45.8333C70 46.9618 69.6152 47.9384 68.8455 48.763C68.0758 49.5877 67.1644 50 66.1111 50H3.88889C2.83565 50 1.92419 49.5877 1.15451 48.763C0.384838 47.9384 0 46.9618 0 45.8333V4.16667C0 3.03819 0.384838 2.06163 1.15451 1.23698C1.92419 0.412326 2.83565 0 3.88889 0H66.1111C67.1644 0 68.0758 0.412326 68.8455 1.23698C69.6152 2.06163 70 3.03819 70 4.16667Z" fill="#3B5998"/>
</g>
<defs>
<clipPath id="clip0_202_48">
<rect width="70" height="50" fill="white"/>
</clipPath>
</defs>
</svg>
