<svg width="75" height="50" viewBox="0 0 75 50" fill="none" xmlns="http://www.w3.org/2000/svg">
<g clip-path="url(#clip0_202_64)">
<path d="M10.1888 21.1263C10.1888 22.2331 9.79818 23.1445 9.01693 23.8607C8.38759 24.4249 7.42187 24.707 6.11979 24.707H5.56641V17.5456H6.11979C7.44358 17.5456 8.40929 17.8385 9.01693 18.4245C9.79818 19.0972 10.1888 19.9978 10.1888 21.1263ZM68.0013 19.0104C68.0013 20.1389 67.3069 20.7031 65.918 20.7031H65.2995V17.4154H65.9505C67.3177 17.4154 68.0013 17.947 68.0013 19.0104ZM12.3698 21.1263C12.3698 19.5204 11.8273 18.2129 10.7422 17.2038C9.65712 16.1947 8.25738 15.6901 6.54297 15.6901H3.45052V26.5299H6.54297C8.14887 26.5299 9.4401 26.1176 10.4167 25.293C11.7188 24.1862 12.3698 22.7973 12.3698 21.1263ZM13.3464 26.5299H15.4622V15.6901H13.3464V26.5299ZM23.763 23.2422C23.763 22.3741 23.5406 21.7014 23.0957 21.224C22.6508 20.7465 21.8316 20.2908 20.638 19.8568C20.0087 19.6398 19.5801 19.4336 19.3522 19.2383C19.1243 19.043 19.0104 18.7934 19.0104 18.4896C19.0104 18.1424 19.1569 17.8548 19.4499 17.627C19.7428 17.3991 20.1172 17.2852 20.5729 17.2852C21.2023 17.2852 21.7773 17.5781 22.2982 18.1641L23.4049 16.7318C22.5152 15.9288 21.4518 15.5273 20.2148 15.5273C19.26 15.5273 18.457 15.8257 17.806 16.4225C17.1549 17.0193 16.8294 17.7517 16.8294 18.6198C16.8294 19.3793 17.0247 19.9816 17.4154 20.4264C17.806 20.8713 18.5004 21.2674 19.4987 21.6146C20.3016 21.8967 20.7899 22.1029 20.9635 22.2331C21.3759 22.4935 21.582 22.8624 21.582 23.3398C21.582 23.7739 21.4301 24.1374 21.1263 24.4303C20.8225 24.7233 20.4319 24.8698 19.9544 24.8698C18.9128 24.8698 18.1424 24.3924 17.6432 23.4375L16.276 24.7396C17.2309 26.1285 18.4787 26.8229 20.0195 26.8229C21.1263 26.8229 22.0269 26.492 22.7214 25.8301C23.4158 25.1682 23.763 24.3056 23.763 23.2422ZM32.8125 26.1719V23.6654C32.0095 24.4683 31.1632 24.8698 30.2734 24.8698C29.2101 24.8698 28.3366 24.5171 27.653 23.8118C26.9694 23.1066 26.6276 22.2114 26.6276 21.1263C26.6276 20.0846 26.9694 19.2003 27.653 18.4733C28.3366 17.7463 29.1775 17.3828 30.1758 17.3828C31.1089 17.3828 31.9878 17.7951 32.8125 18.6198V16.1133C31.9444 15.6793 31.0764 15.4622 30.2083 15.4622C28.6024 15.4622 27.2407 16.0102 26.123 17.1061C25.0054 18.202 24.4466 19.5421 24.4466 21.1263C24.4466 22.7105 25 24.0506 26.1068 25.1465C27.2135 26.2424 28.5699 26.7904 30.1758 26.7904C31.0872 26.7904 31.9661 26.5842 32.8125 26.1719ZM72.9167 45.8333V28.6784C71.5061 29.5464 69.9381 30.4579 68.2129 31.4128C66.4876 32.3676 63.9106 33.6371 60.4818 35.2214C57.0529 36.8056 53.4776 38.2975 49.7559 39.6973C46.0341 41.097 41.5039 42.5564 36.1654 44.0755C30.8268 45.5946 25.3581 46.875 19.7591 47.9167H70.8333C71.3976 47.9167 71.8858 47.7105 72.2982 47.2982C72.7105 46.8858 72.9167 46.3976 72.9167 45.8333ZM45.2148 21.1914C45.2148 19.5638 44.6398 18.1749 43.4896 17.0247C42.3394 15.8746 40.9505 15.2995 39.3229 15.2995C37.6953 15.2995 36.3064 15.8746 35.1562 17.0247C34.0061 18.1749 33.431 19.5638 33.431 21.1914C33.431 22.819 34.0061 24.2079 35.1562 25.3581C36.3064 26.5082 37.6953 27.0833 39.3229 27.0833C40.9505 27.0833 42.3394 26.5082 43.4896 25.3581C44.6398 24.2079 45.2148 22.819 45.2148 21.1914ZM50.1628 26.8229L54.8503 15.6901H52.5391L49.6094 22.9818L46.7122 15.6901H44.401L49.0234 26.8229H50.1628ZM55.7943 26.5299H61.7839V24.707H57.9102V21.7773H61.6536V19.9544H57.9102V17.5456H61.7839V15.6901H55.7943V26.5299ZM68.5221 26.5299H71.1263L67.7083 21.9727C69.3576 21.6254 70.1823 20.6055 70.1823 18.9128C70.1823 17.8928 69.8459 17.1007 69.1732 16.5365C68.5004 15.9722 67.5564 15.6901 66.3411 15.6901H63.1836V26.5299H65.2995V22.2005H65.5924L68.5221 26.5299ZM75 4.36198V45.638C75 46.8533 74.5822 47.8841 73.7467 48.7305C72.9112 49.5768 71.8967 50 70.7031 50H4.29688C3.1033 50 2.08876 49.5768 1.25326 48.7305C0.417752 47.8841 0 46.8533 0 45.638V4.36198C0 3.1467 0.417752 2.11589 1.25326 1.26953C2.08876 0.423177 3.1033 0 4.29688 0H70.7031C71.8967 0 72.9112 0.423177 73.7467 1.26953C74.5822 2.11589 75 3.1467 75 4.36198Z" fill="#FF9A62"/>
</g>
<defs>
<clipPath id="clip0_202_64">
<rect width="75" height="50" fill="white"/>
</clipPath>
</defs>
</svg>
