<svg width="90" height="90" viewBox="0 0 90 90" fill="none" xmlns="http://www.w3.org/2000/svg">
<path d="M14.0625 16.875C9.43594 16.875 5.625 20.6859 5.625 25.3125V64.6875C5.625 69.3141 9.43594 73.125 14.0625 73.125H75.9375C80.5641 73.125 84.375 69.3141 84.375 64.6875V25.3125C84.375 20.6859 80.5641 16.875 75.9375 16.875H14.0625ZM14.0625 22.5H75.9375C77.5294 22.5 78.75 23.7206 78.75 25.3125V64.6875C78.75 66.2794 77.5294 67.5 75.9375 67.5H14.0625C12.4706 67.5 11.25 66.2794 11.25 64.6875V25.3125C11.25 23.7206 12.4706 22.5 14.0625 22.5ZM30.9319 30.9375C29.6241 30.9375 28.1306 31.6828 27.1631 32.7713C26.415 33.6741 25.6022 35.1084 25.8834 36.54C27.225 36.6975 28.6903 35.8566 29.5312 34.7681C30.465 33.7697 30.9937 32.3691 30.9319 30.9375ZM36.5625 36.5625V53.4375H39.1838V47.6578H42.8316C46.1362 47.6578 48.4706 45.3853 48.4706 42.1116C48.4706 38.8069 46.1644 36.5625 42.8906 36.5625H36.5625ZM22.0444 38.0334C19.1194 38.0334 16.875 40.5928 16.875 44.2631C16.875 49.0444 20.2331 53.4375 22.3312 53.4375C23.5969 53.4375 24.0581 52.5853 25.74 52.5853C27.2897 52.5853 27.7791 53.4375 29.0981 53.4375C31.6012 53.4375 33.6712 48.3469 33.75 48.0375C33.3366 47.8294 30.9291 46.6959 30.9319 43.9566C30.9319 41.2959 33.1284 40.1034 33.2325 40.05C32.0175 38.2416 30.105 38.0334 29.3822 38.0334C27.7031 38.0334 26.235 38.9419 25.4334 38.9419C24.6066 38.9419 23.3888 38.0334 22.0444 38.0334ZM39.1838 38.7759H42.2044C44.4797 38.7759 45.7903 39.9909 45.7903 42.1116C45.7903 44.2322 44.4797 45.4781 42.2044 45.4781H39.1838V38.7759ZM54.6469 40.8684C51.8738 40.8684 49.8122 42.4603 49.7531 44.6428H52.1184C52.3069 43.6134 53.2716 42.9272 54.5794 42.9272C56.1994 42.9272 57.0797 43.6781 57.0797 45.0506V45.9844L53.8059 46.2037C50.7825 46.3922 49.1259 47.6381 49.1259 49.7897C49.1259 51.9722 50.8106 53.4375 53.2406 53.4375C54.8916 53.4375 56.4244 52.5937 57.1078 51.2831H57.1669V53.3109H59.5997V44.8959C59.5997 42.4631 57.6394 40.8684 54.6469 40.8684ZM60.6769 41.0288L65.1038 53.3447L64.8844 54.09C64.4794 55.3388 63.8241 55.8394 62.6709 55.8394C62.4544 55.8394 62.0522 55.8056 61.8975 55.8056V57.8306C62.055 57.8616 62.7019 57.8925 62.8903 57.8925C65.4497 57.8925 66.6647 56.8969 67.7278 53.9662L72.3066 41.0288H69.6544L66.5719 51.0047H66.5044L63.4247 41.0288H60.6769ZM57.0769 47.7562V48.6956H57.0741C57.0741 50.2847 55.7353 51.4041 53.9606 51.4041C52.5544 51.4041 51.6853 50.7544 51.6853 49.725C51.6853 48.6647 52.5262 48.0375 54.18 47.9447L57.0769 47.7562Z" fill="black"/>
</svg>
