<svg width="90" height="70" viewBox="0 0 90 70" fill="none" xmlns="http://www.w3.org/2000/svg">
<g clip-path="url(#clip0_107_146)">
<path d="M57.1667 49.7087H32.8335V5.94922H57.1667V49.7087Z" fill="#6C6BBD"/>
<path d="M34.378 27.8301C34.378 18.9531 38.5313 11.0459 44.9993 5.95035C40.2696 2.22417 34.2996 0 27.8126 0C12.4545 0 0.00488281 12.4596 0.00488281 27.8301C0.00488281 43.2002 12.4545 55.6599 27.8126 55.6599C34.3 55.6599 40.2696 53.4357 44.9993 49.7095C38.5313 44.6139 34.378 36.7067 34.378 27.8301Z" fill="#D32011"/>
<path d="M89.9952 27.8301C89.9952 43.2002 77.5456 55.6599 62.1875 55.6599C55.7001 55.6599 49.7305 53.4357 44.999 49.7095C51.4688 44.6139 55.6221 36.7067 55.6221 27.8301C55.6221 18.9531 51.4688 11.0459 44.999 5.95035C49.7305 2.22417 55.7005 0 62.1875 0C77.5456 0 89.9952 12.4596 89.9952 27.8301Z" fill="#0099DF"/>
<path d="M65.4 62.0736C65.7234 62.0736 66.1885 62.1355 66.5439 62.2752L66.0489 63.7898C65.7094 63.6502 65.3698 63.6041 65.0446 63.6041C63.9943 63.6041 63.4691 64.2834 63.4691 65.5043V69.648H61.8619V62.2593H63.4533V63.1563C63.8705 62.507 64.4734 62.0736 65.4 62.0736ZM59.4624 63.7279H56.8365V67.0665C56.8365 67.808 57.0984 68.3033 57.9031 68.3033C58.3203 68.3033 58.8451 68.1636 59.3229 67.8857L59.7858 69.2607C59.2768 69.616 58.4739 69.8341 57.779 69.8341C55.8783 69.8341 55.2153 68.813 55.2153 67.0967V63.7279H53.7161V62.2593H55.2153V60.0176H56.8365V62.2593H59.4624V63.7279ZM38.9004 65.3045C39.0719 64.2376 39.7194 63.5105 40.8633 63.5105C41.8975 63.5105 42.5622 64.1595 42.732 65.3045H38.9004ZM44.4014 65.9539C44.3852 63.6498 42.9636 62.0736 40.8931 62.0736C38.7309 62.0736 37.2173 63.6502 37.2173 65.9535C37.2173 68.3015 38.7928 69.832 41.0028 69.832C42.115 69.832 43.1334 69.5541 44.0298 68.7971L43.2413 67.6064C42.6244 68.1017 41.8356 68.3796 41.0949 68.3796C40.0604 68.3796 39.1179 67.9001 38.8863 66.5715H44.3694C44.3852 66.3696 44.4014 66.1695 44.4014 65.9539ZM51.46 64.1455C51.0125 63.8658 50.1017 63.5102 49.1592 63.5102C48.2787 63.5102 47.7535 63.8359 47.7535 64.3773C47.7535 64.8708 48.3089 65.0104 49.0039 65.1026L49.7607 65.2106C51.3679 65.4442 52.3402 66.1238 52.3402 67.4225C52.3402 68.8288 51.1042 69.8338 48.9736 69.8338C47.7679 69.8338 46.6557 69.5242 45.7748 68.8749L46.5319 67.6223C47.0729 68.0398 47.8776 68.3954 48.9895 68.3954C50.0859 68.3954 50.6729 68.0718 50.6729 67.4984C50.6729 67.0827 50.2556 66.8491 49.3751 66.727L48.6182 66.619C46.965 66.3855 46.0686 65.644 46.0686 64.4392C46.0686 62.9706 47.2744 62.0736 49.1434 62.0736C50.3175 62.0736 51.3837 62.3374 52.1546 62.8468L51.46 64.1455ZM71.2719 63.6002C70.9415 63.6002 70.6356 63.659 70.3509 63.774C70.0753 63.8856 69.8251 64.0517 69.6152 64.2623C69.404 64.4779 69.2381 64.7336 69.1272 65.0143C69.0088 65.3063 68.9504 65.6281 68.9504 65.9785C68.9504 66.3306 69.0088 66.6507 69.1272 66.9427C69.2457 67.2346 69.4085 67.4861 69.6152 67.6947C69.8251 67.9053 70.0753 68.0714 70.3509 68.183C70.6356 68.2997 70.9415 68.3564 71.2719 68.3564C71.6023 68.3564 71.9103 68.3001 72.1929 68.183C72.4697 68.0718 72.7212 67.9058 72.9321 67.6947C73.1427 67.4861 73.3055 67.2346 73.4257 66.9427C73.5441 66.6507 73.6025 66.3306 73.6025 65.9785C73.6025 65.6281 73.5441 65.3063 73.4257 65.0143C73.3055 64.7224 73.1427 64.4712 72.9321 64.2623C72.7213 64.0513 72.4699 63.8852 72.1932 63.774C71.9004 63.6569 71.5876 63.598 71.2722 63.6006L71.2719 63.6002ZM71.2719 62.0736C71.8449 62.0736 72.3753 62.1728 72.8632 62.3726C73.3351 62.5604 73.7653 62.8394 74.1294 63.1936C74.4878 63.5451 74.7722 63.9649 74.9657 64.4283C75.1671 64.9046 75.268 65.4213 75.268 65.9785C75.268 66.5357 75.1671 67.0524 74.9657 67.5283C74.7721 67.9924 74.4877 68.4129 74.1291 68.7651C73.774 69.1137 73.3512 69.3863 72.8636 69.5861C72.375 69.7845 71.8449 69.8834 71.2719 69.8834C70.6989 69.8834 70.1685 69.7845 69.6805 69.5861C69.1926 69.3863 68.7736 69.1137 68.42 68.7651C68.0636 68.4118 67.7804 67.9915 67.5869 67.5283C67.3854 67.0524 67.2845 66.5357 67.2845 65.9785C67.2845 65.4213 67.3854 64.9046 67.5869 64.4286C67.7805 63.966 68.0636 63.5463 68.42 63.1936C68.7816 62.8391 69.2101 62.56 69.6805 62.3726C70.1685 62.1728 70.6989 62.0736 71.2719 62.0736ZM29.5154 65.9535C29.5154 64.6552 30.366 63.5883 31.7556 63.5883C33.0837 63.5883 33.9801 64.6091 33.9801 65.9539C33.9801 67.2983 33.0837 68.3177 31.7556 68.3177C30.366 68.3177 29.5154 67.2522 29.5154 65.9535ZM35.4937 65.9535V62.2593H33.888V63.1563C33.3772 62.4911 32.6063 62.0736 31.556 62.0736C29.4855 62.0736 27.8639 63.6959 27.8639 65.9535C27.8639 68.2097 29.4855 69.8338 31.556 69.8338C32.6063 69.8338 33.3768 69.4162 33.888 68.751V69.648H35.4937V65.9535ZM26.442 69.6484V65.0111C26.442 63.2647 25.3298 62.0898 23.5387 62.074C22.5963 62.0581 21.6219 62.3518 20.9431 63.3885C20.4337 62.5692 19.6294 62.074 18.5014 62.074C17.7143 62.074 16.9417 62.3058 16.3388 63.1707V62.2597H14.7334V69.6484H16.3546V65.5525C16.3546 64.2696 17.0654 63.5886 18.1615 63.5886C19.228 63.5886 19.769 64.2837 19.769 65.5367V69.6484H21.3906V65.5521C21.3906 64.2693 22.133 63.5883 23.1974 63.5883C24.2956 63.5883 24.8207 64.2834 24.8207 65.5363V69.6484H26.442Z" fill="#110F0D"/>
</g>
<defs>
<clipPath id="clip0_107_146">
<rect width="90" height="70" fill="white"/>
</clipPath>
</defs>
</svg>
