<svg width="126" height="50" viewBox="0 0 126 50" fill="none" xmlns="http://www.w3.org/2000/svg">
<g clip-path="url(#clip0_202_58)">
<path d="M88.9576 13.4945C92.4074 13.4945 95.0733 14.4355 97.112 16.3173C99.1505 18.1989 100.091 20.708 100.091 23.8443V38.8982H95.7005V35.4487H95.5437C93.6621 38.2715 90.9961 39.6828 87.8598 39.6828C85.1939 39.6828 82.8417 38.8985 80.9601 37.3306C79.2351 35.7624 78.1373 33.5671 78.1373 31.2149C78.1373 28.7058 79.0785 26.6671 80.9601 25.0989C82.8417 23.5308 85.5076 22.9036 88.6439 22.9036C91.4665 22.9036 93.662 23.3742 95.3868 24.4717V23.3742C95.3868 21.9105 94.8405 20.447 93.7476 19.4933L93.5049 19.297C92.2505 18.1992 90.6824 17.572 88.9576 17.572C86.2917 17.572 84.2532 18.6698 82.8417 20.8651L78.7647 18.3556C81.2736 15.0624 84.5667 13.4945 88.9576 13.4945ZM66.8469 2.8313C69.6606 2.8313 72.3346 3.81047 74.4726 5.63645L74.8444 5.96733C77.0397 7.84919 78.1373 10.672 78.1373 13.6514C78.1373 16.6308 77.0397 19.2967 74.8444 21.3352C72.6488 23.3739 69.9831 24.4715 66.8469 24.4715L59.3199 24.3146V38.8985H54.6152V2.83105L66.8469 2.8313ZM89.5846 26.6671C87.703 26.6671 86.1348 27.1374 84.8804 28.0784C83.6258 28.8624 82.9986 29.96 82.9986 31.3713C82.9986 32.6259 83.626 33.7235 84.5667 34.3509C85.6645 35.135 86.9189 35.6053 88.1736 35.6053C89.9297 35.6053 91.6861 34.9222 93.0598 33.6838L93.3483 33.41C94.9165 31.9987 95.7005 30.2737 95.7005 28.3918C94.2893 27.2943 92.2505 26.6668 89.5848 26.6668L89.5846 26.6671ZM67.1606 7.22199H59.3199V19.7673H67.1606C68.8853 19.7673 70.6103 19.1401 71.7081 17.8857C74.217 15.5335 74.217 11.6132 71.865 9.26071L71.7081 9.10385C70.4535 7.84944 68.8853 7.06537 67.1603 7.22223L67.1606 7.22199ZM125.495 14.2786L109.971 49.8754H105.266L111.068 37.4872L100.875 14.4355H105.893L113.264 32.1553H113.42L120.634 14.4355H125.495V14.2786Z" fill="#5F6368"/>
<path d="M40.6586 21.1782C40.6586 19.7669 40.5017 18.3556 40.3449 16.9443H20.7437V24.9419H31.8772C31.4069 27.4507 29.9956 29.8029 27.8003 31.2144V36.3892H34.5432C38.4635 32.7826 40.6588 27.4507 40.6588 21.1784L40.6586 21.1782Z" fill="#4285F4"/>
<path d="M20.7437 41.4071C26.3888 41.4071 31.0932 39.5252 34.5432 36.389L27.8003 31.2142C25.9184 32.4686 23.5662 33.2527 20.7437 33.2527C15.4118 33.2527 10.7074 29.6461 9.13926 24.6279H2.23975V29.9595C5.84636 37.0162 12.903 41.4071 20.7437 41.4071Z" fill="#34A853"/>
<path d="M9.13914 24.628C8.19845 22.1189 8.19845 19.2964 9.13914 16.6304V11.2988H2.23963C-0.740031 17.101 -0.740031 24.0008 2.23963 29.9596L9.13914 24.628Z" fill="#FBBC04"/>
<path d="M20.7438 8.16283C23.7232 8.16283 26.5457 9.26062 28.7413 11.2991L34.7002 5.34028C30.9364 1.89028 25.9185 -0.148201 20.9004 0.00841678C13.0597 0.00841678 5.84648 4.39935 2.39648 11.456L9.29624 16.7876C10.7075 11.7694 15.4119 8.16283 20.7438 8.16283Z" fill="#EA4335"/>
</g>
<defs>
<clipPath id="clip0_202_58">
<rect width="125.5" height="50" fill="white"/>
</clipPath>
</defs>
</svg>
