<svg width="132" height="44" viewBox="0 0 132 44" fill="none" xmlns="http://www.w3.org/2000/svg">
<g clip-path="url(#clip0_202_32)">
<path d="M25.2255 15.797C27.709 17.8158 30.7515 19.0038 34.0373 19.0038V11.8133C33.4154 11.8133 32.7952 11.7396 32.1867 11.5933V17.2532C28.9012 17.2532 25.8592 16.0652 23.375 14.0464V28.7204C23.375 36.0611 18.1424 42.0114 11.6878 42.0114C9.27957 42.0114 7.04098 41.1833 5.18164 39.7633C7.3037 42.2311 10.2636 43.762 13.5379 43.762C19.993 43.762 25.2258 37.8117 25.2258 30.471V15.7968L25.2255 15.797ZM27.5085 8.54291C26.2027 6.92469 25.4006 4.86307 25.2255 2.67537V1.75049H23.4719C23.9133 4.61401 25.4189 7.06011 27.5085 8.54291ZM9.2641 34.1301C8.55503 33.0728 8.17177 31.7793 8.17355 30.4493C8.17355 27.0921 10.5668 24.37 13.5198 24.37C14.07 24.37 14.6171 24.4656 15.1415 24.6548V17.3039C14.5286 17.2083 13.9101 17.1677 13.2916 17.1825V22.9045C12.7669 22.7152 12.2197 22.6192 11.6692 22.6197C8.71625 22.6197 6.32298 25.3415 6.32298 28.6993C6.32298 31.0733 7.51923 33.1286 9.2641 34.1301Z" fill="#FF004F"/>
<path d="M23.3746 14.0464C25.8589 16.0652 28.9008 17.2529 32.1866 17.2529V11.593C30.3861 11.1551 28.7506 10.0888 27.5081 8.54291C25.4185 7.06011 23.9129 4.61371 23.4715 1.75049H18.8655V30.4702C18.8552 33.8183 16.4655 36.5293 13.5192 36.5293C11.7828 36.5293 10.2401 35.588 9.26324 34.1301C7.51888 33.1286 6.32237 31.0733 6.32237 28.6993C6.32237 25.3418 8.71564 22.6197 11.6686 22.6197C12.2343 22.6197 12.7798 22.72 13.291 22.9045V17.1828C6.94989 17.3318 1.8501 23.224 1.8501 30.4705C1.8501 34.0878 3.12008 37.367 5.18129 39.7633C7.10502 41.2329 9.37057 42.0156 11.6877 42.0111C18.1423 42.0111 23.3749 36.0605 23.3749 28.7201L23.3746 14.0464Z" fill="black"/>
<path d="M32.1866 11.5925V10.0622C30.5327 10.0651 28.9115 9.53843 27.5083 8.54245C28.7504 10.0889 30.386 11.155 32.1866 11.5925ZM23.4718 1.75061C23.4296 1.47707 23.3973 1.2017 23.3748 0.925173V0H17.0149V28.72C17.0045 32.0675 14.6156 34.7785 11.6689 34.7785C10.8335 34.78 10.0095 34.5579 9.26346 34.1302C10.2406 35.5881 11.7831 36.5291 13.5194 36.5291C16.4655 36.5291 18.8554 33.8184 18.8657 30.4703V1.75032L23.4718 1.75061ZM13.2915 17.1829V15.5537C12.7601 15.471 12.2243 15.4297 11.6879 15.4299C5.23282 15.4293 0 21.3799 0 28.72C0 33.3215 2.05657 37.3771 5.18177 39.7628C3.12056 37.3668 1.85058 34.0874 1.85058 30.47C1.85058 23.2238 6.95011 17.3319 13.2915 17.1829Z" fill="#00F2EA"/>
<path d="M105.881 35.9937C110.499 35.9937 114.243 31.7682 114.243 26.556C114.243 21.344 110.499 17.1177 105.881 17.1177H104.62C109.239 17.1177 112.983 21.344 112.983 26.556C112.983 31.7682 109.239 35.9937 104.62 35.9937H105.88H105.881Z" fill="#FF004F"/>
<path d="M104.507 17.1177H103.247C98.6283 17.1177 94.8833 21.344 94.8833 26.556C94.8833 31.7682 98.6283 35.9937 103.247 35.9937H104.507C99.8874 35.9937 96.1432 31.7682 96.1432 26.556C96.1432 21.344 99.8874 17.1177 104.507 17.1177Z" fill="#00F2EA"/>
<path d="M68.7652 12.8519V23.5811L73.5758 18.1515H79.4178L73.3463 24.8747L80.1054 35.9932H74.9509L70.2546 28.3648L68.7652 29.9174V35.8641H63.9537V12.8519H68.7652ZM120.659 12.8519V23.5811L125.47 18.1515H131.312L125.241 24.8747L132 35.9938H126.845L122.148 28.3654L120.659 29.918V35.8647H115.846V12.8519H120.659ZM104.62 17.1175C109.239 17.1175 112.984 21.3439 112.984 26.5558C112.984 31.768 109.239 35.9935 104.62 35.9935H104.506C99.8876 35.9935 96.1434 31.768 96.1434 26.5558C96.1434 21.3439 99.8876 17.1175 104.506 17.1175H104.62ZM56.1647 12.8519L54.7897 17.7649H50.7808V35.8644H45.8537V17.6358H40.9287V12.8516H56.1644L56.1647 12.8519ZM96.4878 12.8519L95.1134 17.7649H91.1044V35.8644H86.1774V17.6358H81.2524V12.8516L96.4878 12.8519ZM61.8912 20.2213V35.8647H57.0814V20.2213H61.8912ZM104.564 21.9669C102.318 21.9669 100.497 24.0205 100.497 26.5558C100.497 29.0911 102.318 31.1456 104.564 31.1462C106.809 31.1462 108.631 29.0911 108.631 26.5558C108.631 24.0205 106.809 21.9669 104.564 21.9669ZM59.4853 12.8519C60.8148 12.8519 61.8912 14.0677 61.8912 15.5667C61.8912 17.0656 60.8156 18.2815 59.4853 18.2815C58.1568 18.2809 57.0814 17.0659 57.0814 15.5667C57.0814 14.0677 58.1568 12.8519 59.4853 12.8519Z" fill="black"/>
</g>
<defs>
<clipPath id="clip0_202_32">
<rect width="132" height="44" fill="white"/>
</clipPath>
</defs>
</svg>
