<svg width="90" height="70" viewBox="0 0 90 70" fill="none" xmlns="http://www.w3.org/2000/svg">
<g clip-path="url(#clip0_107_141)">
<path d="M16.3646 69.652V65.019C16.3646 63.2426 15.284 62.0846 13.4319 62.0846C12.5059 62.0846 11.5027 62.3935 10.8081 63.3974C10.2681 62.5479 9.49654 62.0846 8.33897 62.0846C7.56702 62.0846 6.79577 62.3161 6.17815 63.1656V62.2391H4.55762V69.652H6.17815V65.5593C6.17815 64.2469 6.87276 63.6289 7.95334 63.6289C9.03323 63.6289 9.57387 64.3239 9.57387 65.5593V69.652H11.1944V65.5593C11.1944 64.2469 11.9656 63.6289 12.9689 63.6289C14.0495 63.6289 14.5894 64.3239 14.5894 65.5593V69.652H16.3646ZM40.3635 62.2391H37.7401V59.9998H36.1196V62.2391H34.6534V63.7059H36.1192V67.1039C36.1192 68.8029 36.8139 69.8064 38.666 69.8064C39.3606 69.8064 40.1319 69.575 40.6725 69.2661L40.2092 67.876C39.7463 68.1848 39.2063 68.2622 38.8204 68.2622C38.0488 68.2622 37.7401 67.799 37.7401 67.0265V63.7059H40.3635V62.2391ZM54.0997 62.0843C53.1738 62.0843 52.5565 62.5479 52.1706 63.1656V62.2391H50.55V69.652H52.1706V65.4823C52.1706 64.2469 52.7105 63.5518 53.7137 63.5518C54.0224 63.5518 54.4084 63.6292 54.717 63.7062L55.18 62.162C54.8713 62.0846 54.4084 62.0846 54.0997 62.0846V62.0843ZM33.3415 62.8567C32.5695 62.3161 31.4893 62.0846 30.3317 62.0846C28.4799 62.0846 27.2454 63.0112 27.2454 64.4784C27.2454 65.7141 28.1713 66.4088 29.7918 66.6406L30.5634 66.718C31.4123 66.8721 31.8753 67.1039 31.8753 67.4901C31.8753 68.0304 31.258 68.4166 30.1774 68.4166C29.0972 68.4166 28.2483 68.0304 27.708 67.6445L26.9364 68.8799C27.7853 69.4976 28.9429 69.8064 30.1001 69.8064C32.2609 69.8064 33.4958 68.8029 33.4958 67.4127C33.4958 66.1 32.4926 65.4049 30.949 65.1734L30.1774 65.096C29.4828 65.0187 28.9429 64.8646 28.9429 64.4013C28.9429 63.8607 29.4828 63.5518 30.3317 63.5518C31.258 63.5518 32.1839 63.9377 32.6469 64.1695L33.3415 62.8567ZM76.4015 62.0846C75.4752 62.0846 74.8579 62.5479 74.472 63.1656V62.2391H72.8514V69.652H74.472V65.4823C74.472 64.2469 75.0123 63.5518 76.0152 63.5518C76.3241 63.5518 76.7101 63.6292 77.0188 63.7062L77.4817 62.162C77.1731 62.0846 76.7101 62.0846 76.4015 62.0846ZM55.7202 65.9455C55.7202 68.1848 57.2634 69.8064 59.6559 69.8064C60.7361 69.8064 61.5077 69.575 62.2793 68.9573L61.5077 67.6445C60.8905 68.1078 60.2732 68.3393 59.5786 68.3393C58.2667 68.3393 57.3408 67.4127 57.3408 65.9455C57.3408 64.5557 58.2667 63.6289 59.5786 63.5518C60.2732 63.5518 60.8905 63.7833 61.5077 64.2469L62.2793 62.9341C61.5077 62.3161 60.7361 62.0846 59.6559 62.0846C57.2634 62.0846 55.7202 63.7062 55.7202 65.9455ZM70.691 65.9455V62.2391H69.0704V63.1656C68.5301 62.4709 67.7586 62.0846 66.7553 62.0846C64.6718 62.0846 63.0513 63.7062 63.0513 65.9455C63.0513 68.1848 64.6718 69.8064 66.7553 69.8064C67.8355 69.8064 68.6075 69.4206 69.0704 68.7255V69.652H70.691V65.9455ZM64.7488 65.9455C64.7488 64.6328 65.5977 63.5518 66.9866 63.5518C68.2985 63.5518 69.2248 64.5557 69.2248 65.9455C69.2248 67.2583 68.2985 68.3393 66.9866 68.3393C65.5977 68.2619 64.7488 67.2583 64.7488 65.9455ZM45.3798 62.0846C43.219 62.0846 41.6754 63.6289 41.6754 65.9455C41.6754 68.2622 43.2186 69.8064 45.4568 69.8064C46.537 69.8064 47.6176 69.4976 48.4665 68.8029L47.6946 67.6445C47.0773 68.1078 46.3057 68.4166 45.5341 68.4166C44.5309 68.4166 43.5276 67.9534 43.296 66.6403H48.7752V66.0229C48.8525 63.6289 47.4636 62.0846 45.3798 62.0846ZM45.3798 63.4744C46.3827 63.4744 47.0777 64.0925 47.2316 65.2508H43.3733C43.5276 64.2469 44.2222 63.4744 45.3798 63.4744ZM85.5844 65.9455V59.3047H83.9638V63.1656C83.4235 62.4709 82.6519 62.0846 81.6487 62.0846C79.5652 62.0846 77.9447 63.7062 77.9447 65.9455C77.9447 68.1848 79.5652 69.8064 81.6487 69.8064C82.7293 69.8064 83.5009 69.4206 83.9638 68.7255V69.652H85.5844V65.9455ZM79.6425 65.9455C79.6425 64.6328 80.4911 63.5518 81.8803 63.5518C83.1922 63.5518 84.1181 64.5557 84.1181 65.9455C84.1181 67.2583 83.1922 68.3393 81.8803 68.3393C80.4911 68.2619 79.6425 67.2583 79.6425 65.9455ZM25.4702 65.9455V62.2391H23.8496V63.1656C23.3093 62.4709 22.5377 62.0846 21.5345 62.0846C19.451 62.0846 17.8305 63.7062 17.8305 65.9455C17.8305 68.1848 19.451 69.8064 21.5345 69.8064C22.6151 69.8064 23.3867 69.4206 23.8496 68.7255V69.652H25.4702V65.9455ZM19.451 65.9455C19.451 64.6328 20.2999 63.5518 21.6888 63.5518C23.0007 63.5518 23.927 64.5557 23.927 65.9455C23.927 67.2583 23.0007 68.3393 21.6888 68.3393C20.2999 68.2619 19.451 67.2583 19.451 65.9455Z" fill="black"/>
<path d="M32.8013 5.94531H57.1092V49.6517H32.8013V5.94531Z" fill="#FF5F00"/>
<path d="M34.345 27.7991C34.345 18.919 38.5119 11.0424 44.9167 5.94578C40.2098 2.2393 34.268 0 27.7859 0C12.4288 0 0.00488281 12.4322 0.00488281 27.7991C0.00488281 43.1657 12.4288 55.5983 27.7855 55.5983C34.2676 55.5983 40.2094 53.359 44.9167 49.6522C38.5119 44.6329 34.345 36.6793 34.345 27.7991Z" fill="#EB001B"/>
<path d="M89.906 27.7991C89.906 43.1657 77.482 55.5983 62.1253 55.5983C55.6432 55.5983 49.7014 53.359 44.9941 49.6522C51.4763 44.5559 55.5662 36.6793 55.5662 27.7991C55.5662 18.919 51.3989 11.0424 44.9941 5.94578C49.7011 2.2393 55.6432 0 62.1253 0C77.482 0 89.906 12.5096 89.906 27.7991Z" fill="#F79E1B"/>
</g>
<defs>
<clipPath id="clip0_107_141">
<rect width="90" height="70" fill="white"/>
</clipPath>
</defs>
</svg>
