<svg width="100" height="50" viewBox="0 0 100 50" fill="none" xmlns="http://www.w3.org/2000/svg">
<path d="M51.7175 15.9203C51.6605 22.8576 55.7264 26.7287 58.7892 29.0305C61.936 31.392 62.993 32.9064 62.9805 35.0185C62.957 38.2504 60.4704 39.6769 58.1435 39.7323C54.0838 39.8293 51.7234 38.042 49.8469 36.6902L48.3844 47.2438C50.2672 48.5817 53.7534 49.7486 57.3685 49.7998C65.8546 49.7998 71.4064 43.3396 71.4365 33.3233C71.4697 20.6112 60.0352 19.9076 60.1134 14.2257C60.1403 12.5028 61.2063 10.6643 63.5422 10.1968C64.6984 9.96065 67.8901 9.77992 71.5087 12.3498L72.929 2.13896C70.983 1.04619 68.4819 -0.000196712 65.3679 -0.000196712C57.3806 -0.000196712 51.7628 6.548 51.7175 15.9203ZM86.5762 0.879321C85.0267 0.879321 83.7209 2.2733 83.1381 4.41245L71.0162 49.0498H79.496L81.1834 41.8576H91.5456L92.5245 49.0498H99.9985L93.4764 0.879321H86.5762ZM87.7625 13.892L90.2097 31.9805H83.5076L87.7625 13.892ZM41.4362 0.879923L34.752 49.0492H42.8326L49.5137 0.878719H41.4362M29.4822 0.878719L21.0715 33.6661L17.6693 5.78836C17.2701 2.67631 15.6936 0.879321 13.9428 0.879321H0.194037L0.00146484 2.27812C2.82404 3.22269 6.03097 4.74619 7.97388 6.37631C9.16291 7.37209 9.50196 8.24257 9.89258 10.6088L16.3365 49.0498H24.8757L37.9675 0.879321L29.4822 0.878719Z" fill="url(#paint0_linear_107_140)"/>
<defs>
<linearGradient id="paint0_linear_107_140" x1="4597.26" y1="149.699" x2="4819.33" y2="-4959.24" gradientUnits="userSpaceOnUse">
<stop stop-color="#222357"/>
<stop offset="1" stop-color="#254AA5"/>
</linearGradient>
</defs>
</svg>
