<svg width="71" height="70" viewBox="0 0 71 70" fill="none" xmlns="http://www.w3.org/2000/svg">
<path d="M36.375 26.0458L29.3167 18.9583H45.7083V29.1667H50.0833V14.5833H29.3167L36.375 7.49583L33.2833 4.375L20.9167 16.7708L33.2833 29.1667L36.375 26.0458ZM35.5 40.8333C33.7694 40.8333 32.0777 41.3465 30.6388 42.308C29.1998 43.2694 28.0783 44.636 27.4161 46.2349C26.7538 47.8337 26.5805 49.593 26.9181 51.2904C27.2557 52.9877 28.0891 54.5468 29.3128 55.7705C30.5365 56.9942 32.0956 57.8276 33.793 58.1652C35.4903 58.5028 37.2496 58.3295 38.8485 57.6673C40.4473 57.005 41.8139 55.8835 42.7754 54.4446C43.7368 53.0056 44.25 51.3139 44.25 49.5833C44.25 47.2627 43.3281 45.0371 41.6872 43.3961C40.0462 41.7552 37.8206 40.8333 35.5 40.8333ZM9.25 32.0833V67.0833H61.75V32.0833M55.9167 55.4167C54.3696 55.4167 52.8858 56.0312 51.7919 57.1252C50.6979 58.2192 50.0833 59.7029 50.0833 61.25H20.9167C20.9167 59.7029 20.3021 58.2192 19.2081 57.1252C18.1142 56.0312 16.6304 55.4167 15.0833 55.4167V43.75C16.6304 43.75 18.1142 43.1354 19.2081 42.0415C20.3021 40.9475 20.9167 39.4638 20.9167 37.9167H50.0833C50.0833 39.4638 50.6979 40.9475 51.7919 42.0415C52.8858 43.1354 54.3696 43.75 55.9167 43.75V55.4167Z" fill="#E70072"/>
</svg>
