<svg width="48" height="48" viewBox="0 0 48 48" fill="none" xmlns="http://www.w3.org/2000/svg">
<path d="M24 15C22.22 15 20.4799 15.5278 18.9999 16.5168C17.5198 17.5057 16.3663 18.9113 15.6851 20.5558C15.0039 22.2004 14.8257 24.01 15.1729 25.7558C15.5202 27.5016 16.3774 29.1053 17.636 30.364C18.8947 31.6226 20.4984 32.4798 22.2442 32.8271C23.99 33.1743 25.7996 32.9961 27.4442 32.3149C29.0887 31.6337 30.4943 30.4802 31.4832 29.0001C32.4722 27.5201 33 25.78 33 24C32.9975 21.6138 32.0485 19.3261 30.3612 17.6388C28.6739 15.9515 26.3862 15.0025 24 15ZM24 30C22.8133 30 21.6533 29.6481 20.6666 28.9888C19.6799 28.3295 18.9108 27.3925 18.4567 26.2961C18.0026 25.1997 17.8838 23.9933 18.1153 22.8295C18.3468 21.6656 18.9182 20.5965 19.7574 19.7574C20.5965 18.9182 21.6656 18.3468 22.8295 18.1153C23.9933 17.8838 25.1997 18.0026 26.2961 18.4567C27.3925 18.9108 28.3295 19.6799 28.9888 20.6666C29.6481 21.6533 30 22.8133 30 24C30 25.5913 29.3679 27.1174 28.2426 28.2426C27.1174 29.3679 25.5913 30 24 30ZM33 4.5H15C12.2161 4.50298 9.54715 5.61018 7.57867 7.57867C5.61018 9.54715 4.50298 12.2161 4.5 15V33C4.50298 35.7839 5.61018 38.4528 7.57867 40.4213C9.54715 42.3898 12.2161 43.497 15 43.5H33C35.7839 43.497 38.4528 42.3898 40.4213 40.4213C42.3898 38.4528 43.497 35.7839 43.5 33V15C43.497 12.2161 42.3898 9.54715 40.4213 7.57867C38.4528 5.61018 35.7839 4.50298 33 4.5ZM40.5 33C40.5 34.9891 39.7098 36.8968 38.3033 38.3033C36.8968 39.7098 34.9891 40.5 33 40.5H15C13.0109 40.5 11.1032 39.7098 9.6967 38.3033C8.29018 36.8968 7.5 34.9891 7.5 33V15C7.5 13.0109 8.29018 11.1032 9.6967 9.6967C11.1032 8.29018 13.0109 7.5 15 7.5H33C34.9891 7.5 36.8968 8.29018 38.3033 9.6967C39.7098 11.1032 40.5 13.0109 40.5 15V33ZM36 14.25C36 14.695 35.868 15.13 35.6208 15.5C35.3736 15.87 35.0222 16.1584 34.611 16.3287C34.1999 16.499 33.7475 16.5436 33.311 16.4568C32.8746 16.37 32.4737 16.1557 32.159 15.841C31.8443 15.5263 31.63 15.1254 31.5432 14.689C31.4564 14.2525 31.501 13.8001 31.6713 13.389C31.8416 12.9778 32.13 12.6264 32.5 12.3792C32.87 12.132 33.305 12 33.75 12C34.3467 12 34.919 12.2371 35.341 12.659C35.7629 13.081 36 13.6533 36 14.25Z" fill="#FF0091"/>
</svg>
