<svg width="71" height="70" viewBox="0 0 71 70" fill="none" xmlns="http://www.w3.org/2000/svg">
<g clip-path="url(#clip0_87_49)">
<path d="M38.3333 12L59.6192 18.65C60.2128 18.8353 60.7317 19.2056 61.1001 19.7067C61.4684 20.2078 61.6669 20.8135 61.6667 21.4354V26.5833H67.5C68.2735 26.5833 69.0154 26.8906 69.5624 27.4376C70.1094 27.9846 70.4167 28.7265 70.4167 29.5V52.8333C70.4167 53.6069 70.1094 54.3488 69.5624 54.8957C69.0154 55.4427 68.2735 55.75 67.5 55.75L58.1083 55.7529C56.9796 57.2404 55.6088 58.5529 54.025 59.6321L38.3333 70.3333L22.6417 59.635C20.2865 58.0292 18.3593 55.8725 17.0275 53.3523C15.6957 50.832 14.9997 48.0246 15 45.1742V21.4354C15.0004 20.814 15.1992 20.2089 15.5675 19.7084C15.9358 19.2079 16.4543 18.8381 17.0475 18.6529L38.3333 12ZM38.3333 18.1075L20.8333 23.5792V45.1742C20.8329 46.9598 21.2424 48.7218 22.0302 50.3242C22.8181 51.9267 23.9632 53.3269 25.3775 54.4171L25.9287 54.8138L38.3333 63.2721L49.3642 55.75H35.4167C34.6431 55.75 33.9013 55.4427 33.3543 54.8957C32.8073 54.3488 32.5 53.6069 32.5 52.8333V29.5C32.5 28.7265 32.8073 27.9846 33.3543 27.4376C33.9013 26.8906 34.6431 26.5833 35.4167 26.5833H55.8333V23.5792L38.3333 18.1075ZM38.3333 41.1667V49.9167H64.5833V41.1667H38.3333ZM38.3333 35.3333H64.5833V32.4167H38.3333V35.3333Z" fill="#E70072"/>
</g>
<defs>
<clipPath id="clip0_87_49">
<rect width="70" height="70" fill="white" transform="translate(0.5)"/>
</clipPath>
</defs>
</svg>
