<svg width="70" height="50" viewBox="0 0 70 50" fill="none" xmlns="http://www.w3.org/2000/svg">
<path d="M65.2898 49.9979H4.66356C3.42671 49.9979 2.24051 49.4711 1.36592 48.5334C0.491338 47.5957 0 46.3238 0 44.9977L0 23.9635H3.3597L4.11753 21.9968H5.8139L6.56979 23.9552H13.1804V22.4655L13.7711 23.9656H17.2027L17.7934 22.4405V23.9614H34.2189V20.7446H34.5298C34.7513 20.7529 34.8154 20.7738 34.8154 21.1696V23.9656H43.3128V23.2176C44.1814 23.6906 45.2054 23.9677 46.2916 23.9677L46.4762 23.9656H46.4665H50.0419L50.8075 22.0072H52.5039L53.252 23.9656H60.1424V22.103L61.1839 23.9656H66.6947V11.6651H61.2403V13.1172L60.4766 11.6651H54.8687V13.1172L54.1672 11.6651H46.5948C45.4475 11.6029 44.3044 11.8561 43.2739 12.4005L43.3147 12.3818V11.6651H38.0916V12.3818C37.4593 11.8475 36.6608 11.5919 35.8589 11.6672H35.8705H16.783L15.5024 14.8444L14.1869 11.6672H8.17483V13.1193L7.51221 11.6672H2.3823L0.00582945 17.5007V5.00021C0.00582945 3.67407 0.497167 2.40225 1.37175 1.46453C2.24634 0.526806 3.43254 0 4.66939 0H65.2956C66.5325 0 67.7187 0.526806 68.5933 1.46453C69.4679 2.40225 69.9592 3.67407 69.9592 5.00021V26.8345H66.3197C66.2614 26.8303 66.1914 26.8303 66.1234 26.8303C65.2801 26.8303 64.497 27.1011 63.8441 27.5657L63.8596 27.5553V26.8345H58.4771C57.6362 26.7846 56.8043 27.0409 56.1162 27.5616L56.1279 27.5532V26.8324H46.517V27.5532C45.7303 27.0775 44.8417 26.8291 43.9385 26.8324H43.8627H43.8666H37.5261V27.5532C36.6977 26.9843 35.7148 26.7311 34.7357 26.8345L34.7532 26.8324H27.6588L26.0343 28.7158L24.5148 26.8324H13.9168V39.1412H24.3166L25.9896 37.2286L27.5655 39.1412H33.976V36.2598H34.8698C35.7293 36.2959 36.5865 36.142 37.3881 35.8077L37.3454 35.8244V39.1454H42.6307V35.939H42.8853C43.2079 35.939 43.2409 35.9515 43.2409 36.3015V39.1475H59.303L59.4992 39.1516C60.4203 39.1516 61.2791 38.8558 61.9942 38.3495L61.9767 38.3599V39.1475H67.0717L67.3146 39.1516C68.2687 39.1516 69.1761 38.9412 70 38.5599L69.9553 38.5787V44.9998C69.9553 46.3259 69.464 47.5978 68.5894 48.5355C67.7148 49.4732 66.5286 50 65.2918 50L65.2898 49.9979ZM41.0102 37.4161H39.032V28.5929H43.5712C44.391 28.5114 45.2166 28.6593 45.9671 29.022L45.936 29.0095C46.5442 29.3679 46.9504 30.0513 46.9504 30.8346L46.9465 30.9742V30.968L46.9484 31.0471C46.9484 32.0597 46.3791 32.9305 45.563 33.3097L45.5474 33.316C45.938 33.466 46.2644 33.7222 46.5073 34.0535L46.5112 34.0577C46.7856 34.5446 46.9004 35.1158 46.8377 35.6807L46.8396 35.6682V37.4141H44.8654V36.3098C44.9588 35.7087 44.8463 35.0915 44.5486 34.5723L44.5545 34.5827C44.3494 34.4158 44.1148 34.2952 43.865 34.2282C43.6151 34.1612 43.3552 34.1493 43.101 34.1931L43.1126 34.191H41.0102V37.4141V37.4161ZM41.0102 30.4159V32.3972H43.4002C43.7377 32.4306 44.0774 32.3658 44.3835 32.2097L44.3718 32.2159C44.4968 32.1294 44.5997 32.0106 44.671 31.8705C44.7422 31.7304 44.7797 31.5734 44.7799 31.4138L44.7779 31.3659C44.7876 31.2067 44.7549 31.0498 44.6837 30.9097C44.6125 30.7696 44.5057 30.654 44.3757 30.5763L44.3718 30.5742C44.0769 30.4328 43.753 30.3754 43.4313 30.4075H43.4391L41.0102 30.4159ZM23.4732 37.4141H15.687V28.5929H23.5957L26.0149 31.4846L28.5157 28.5929H34.7979C37.0287 28.5929 38.1129 29.545 38.1129 31.4992C38.1129 33.4889 36.9917 34.4556 34.693 34.4556H32.2349V37.412H28.4127L25.9916 34.4973L23.4752 37.4141H23.4732ZM30.2762 29.5387L27.2566 33.018L30.2762 36.6099V29.5387ZM17.6477 33.8202V35.5744H22.4822L24.7169 32.9868L22.5677 30.4159H17.6457V32.0201H21.9634V33.8181L17.6477 33.8202ZM32.2349 30.4179V32.6639H34.7746C35.5519 32.6639 35.9988 32.2388 35.9988 31.4971C35.9988 30.7888 35.5829 30.4159 34.796 30.4159L32.2349 30.4179ZM67.2854 37.4182H63.4885V35.5223H67.2699C67.5528 35.5641 67.8397 35.4848 68.0685 35.3015L68.0666 35.3036C68.1396 35.2309 68.1978 35.1429 68.2376 35.0451C68.2774 34.9472 68.2979 34.8416 68.2978 34.7348V34.7014C68.2979 34.596 68.2766 34.4918 68.2354 34.3961C68.1941 34.3003 68.1338 34.2154 68.0588 34.1473C67.8577 33.9914 67.6097 33.9216 67.3631 33.9514H67.367L67.0037 33.9389C65.2276 33.8889 63.2165 33.8306 63.2165 31.2201C63.2165 29.9492 63.9588 28.5929 66.036 28.5929H69.9553V30.4721H66.3702C66.0933 30.4389 65.8136 30.4986 65.5696 30.6429L65.5774 30.6388C65.4815 30.7065 65.4043 30.8006 65.354 30.9113C65.3038 31.0221 65.2823 31.1453 65.2918 31.268V31.2659V31.2888C65.2917 31.4292 65.3331 31.566 65.4098 31.6797C65.4866 31.7934 65.5949 31.8783 65.7192 31.9222L65.7231 31.9242C65.9695 32.0057 66.2274 32.0396 66.4848 32.0243H66.479L67.5458 32.0534C68.3499 31.9674 69.1533 32.2241 69.7824 32.768L69.7765 32.7639C69.8348 32.8139 69.8854 32.868 69.93 32.9285L69.932 32.9305L69.9553 36.289C69.6285 36.6984 69.2128 37.0154 68.7449 37.2119C68.2769 37.4085 67.771 37.4786 67.2718 37.4161L67.2854 37.4182ZM59.6119 37.4182H55.78V35.5223H59.5925C59.8778 35.5624 60.1665 35.4833 60.3989 35.3015L60.395 35.3036C60.4676 35.2307 60.5254 35.1426 60.5648 35.0447C60.6043 34.9469 60.6245 34.8414 60.6243 34.7348V34.7139C60.6242 34.6067 60.6029 34.5007 60.5616 34.403C60.5204 34.3053 60.4603 34.2182 60.3853 34.1473C60.1806 33.9913 59.9295 33.9216 59.6799 33.9514H59.6838L59.3224 33.9389C57.5522 33.8889 55.543 33.8306 55.543 31.2201C55.543 29.9492 56.2814 28.5929 58.3547 28.5929H62.2954V30.4721H58.6889C58.4139 30.4392 58.1361 30.4989 57.8942 30.6429L57.902 30.6388C57.7999 30.7141 57.7187 30.8176 57.6669 30.9383C57.6152 31.059 57.5948 31.1924 57.6079 31.3245C57.6211 31.4566 57.6672 31.5825 57.7416 31.6888C57.8159 31.7951 57.9156 31.8779 58.0302 31.9284L58.0341 31.9305C58.2837 32.0126 58.5449 32.0464 58.8055 32.0305H58.7997L59.8587 32.0597C60.6671 31.9762 61.4741 32.2332 62.1089 32.7764L62.103 32.7701C62.3166 33.0225 62.479 33.3196 62.58 33.6427C62.681 33.9658 62.7184 34.3079 62.6899 34.6473V34.6369C62.6957 36.4765 61.6561 37.4141 59.6061 37.4141L59.6119 37.4182ZM54.6025 37.4182H48.0346V28.5908H54.5967V30.4138H49.9972V32.018H54.4898V33.816H49.9972V35.5702L54.6025 35.5786V37.412V37.4182ZM58.4305 22.2384H54.4257L53.6601 20.2717H49.5756L48.8333 22.2384H46.5326C45.4994 22.2968 44.4819 21.9478 43.6723 21.2571L43.682 21.2634C43.2973 20.8082 43.0054 20.272 42.8247 19.6891C42.644 19.1062 42.5786 18.4893 42.6327 17.8778L42.6307 17.8945C42.5807 17.2717 42.6493 16.6445 42.8324 16.0511C43.0154 15.4576 43.3091 14.9103 43.6956 14.4423L43.6917 14.4464C44.0998 14.0639 44.5769 13.7755 45.0934 13.5991C45.6098 13.4228 46.1546 13.3623 46.6939 13.4214L46.6783 13.4193H48.5826V15.3006H46.7172C46.4442 15.2629 46.1669 15.2903 45.9049 15.3806C45.6429 15.471 45.4028 15.6223 45.2015 15.8236L45.2035 15.8215C44.788 16.3919 44.5863 17.1083 44.638 17.8299V17.8195C44.5761 18.5609 44.7704 19.3009 45.184 19.8987L45.1782 19.8904C45.5645 20.2289 46.059 20.3919 46.5559 20.3446H46.5481H47.4303L50.211 13.4068H53.1646L56.4932 21.7405V13.4068H59.4876L62.9425 19.5487V13.4068H64.9634V22.2238H62.1575L58.4266 15.6027V22.2238L58.4305 22.2384ZM51.6314 14.909L50.277 18.4258H52.9916L51.6314 14.909ZM32.5905 22.2343H30.624V13.4131H35.1477C35.9734 13.3212 36.807 13.4717 37.5591 13.8485L37.53 13.836C37.8324 14.0153 38.0845 14.2782 38.2602 14.5973C38.4358 14.9164 38.5285 15.2801 38.5288 15.6507L38.5249 15.7965V15.7902V15.8548C38.525 16.336 38.3957 16.807 38.1523 17.2113C37.909 17.6156 37.562 17.936 37.153 18.1341L37.1375 18.1403C37.528 18.2987 37.8564 18.5529 38.1071 18.8779L38.111 18.882C38.3882 19.3708 38.5026 19.9459 38.4355 20.5134L38.4374 20.5009V22.2322H36.4535L36.4457 21.1196V20.953C36.5163 20.409 36.404 19.8558 36.129 19.3925L36.1348 19.4029C35.929 19.2408 35.6953 19.124 35.4471 19.0593C35.199 18.9945 34.9414 18.9832 34.6891 19.0258L34.7008 19.0237H32.5924V22.2322L32.5905 22.2343ZM32.5905 15.2486V17.207H34.9767C35.3138 17.2462 35.6543 17.1811 35.958 17.0195L35.9483 17.0236C36.0727 16.9425 36.1756 16.8284 36.2471 16.6923C36.3186 16.5562 36.3562 16.4027 36.3563 16.2465L36.3544 16.1882C36.3643 16.0299 36.3307 15.874 36.2578 15.7359C36.185 15.5978 36.076 15.4856 35.9444 15.4131L35.9405 15.4111C35.6448 15.275 35.3228 15.2178 35.0019 15.2444H35.0078L32.5905 15.2486ZM11.7677 22.2343H7.7726L7.01671 20.2675H2.92055L2.15884 22.2343H0.0213746L3.5443 13.4131H6.46486L9.80902 21.7613V13.4131H13.0172L15.5899 19.3946L17.9547 13.4131H21.2289V22.2301H19.208L19.2041 15.3298L16.3535 22.2322H14.628L11.7697 15.3194V22.2322L11.7677 22.2343ZM4.95892 14.909L3.62009 18.4258H6.30552L4.95892 14.909ZM41.6611 22.2322H39.6558V13.4131H41.6631V22.2301L41.6611 22.2322ZM29.2522 22.2322H22.696V13.4131H29.2638V15.2465H24.6624V16.8361H29.1531V18.6466H24.6586V20.4092H29.2599V22.2301L29.2522 22.2322Z" fill="#006BA6"/>
</svg>
